<?xml version="1.0" encoding="UTF-8"?>
<svg width="96px" height="94px" viewBox="0 0 96 94" version="1.1" xmlns="http://www.w3.org/2000/svg" xmlns:xlink="http://www.w3.org/1999/xlink">
    <title>confetti_adobe_express</title>
    <g id="Welcome-Email" stroke="none" stroke-width="1" fill="none" fill-rule="evenodd">
        <g id="Welcome-Email-Copy" transform="translate(-251.000000, -40.000000)" fill-rule="nonzero">
            <g id="confetti_adobe_express" transform="translate(251.000000, 40.000000)">
                <path d="M88.5336915,47.1061958 C86.9238683,46.927304 85.05859,48.3893173 84.5882893,50.2754682 C84.1263829,52.1279571 85.0933457,54.2950997 86.6058311,55.1472082 C87.6998348,55.7635382 88.8267632,55.7910349 90.1392917,55.5680782 C90.8479386,55.0430009 91.6623688,54.6153534 92.2436141,53.9729412 C93.5266856,52.5548598 93.4813843,50.8618079 92.6145343,49.2962397 C91.7996291,47.8244703 90.5342389,46.8663159 88.5336915,47.1061958 M87.5954475,0 C84.2464485,0.159780186 81.6100159,2.39440099 81.7263623,6.163804 C81.8493233,10.1475762 85.9115353,12.7102344 89.7654992,11.1503353 C90.1089649,10.9617261 90.4825629,10.8133688 90.7911816,10.5782084 C93.5100289,8.50648507 94.0739364,4.58554466 91.6121522,1.89661452 C90.5579854,0.745183396 89.2374173,0.236945414 87.5954475,0 M64.5499306,7.00019056 C64.1138592,6.79478807 63.6613771,6.6183549 63.2449609,6.37826136 C62.2166806,5.78539606 61.2360878,5.93337143 60.32749,6.59016118 C59.3363858,7.30658827 59.259493,8.37069776 59.5309868,9.43739109 C59.8053246,10.5152625 59.3894521,11.3351412 58.6775838,11.988206 C57.6911718,12.893131 57.1895142,14.0265907 57.6118984,15.075471 C58.0577832,16.1827243 58.9337082,16.7469884 60.1257591,16.8434427 C61.1864834,16.9292675 61.9243527,17.4222674 62.2688198,18.5200923 C62.5695248,19.478437 63.449524,20.3781476 64.8385564,20.261341 C66.0741634,20.1574367 66.7154331,19.7675917 67.2556572,18.4987324 C67.6674499,17.1595686 68.8224964,17.0145251 69.931057,16.8457403 C70.7678775,16.7183286 71.4146577,16.4003497 71.796873,15.5877224 C72.3479747,14.4160155 72.1337014,13.1279337 71.232336,12.3558021 C70.3429356,11.5939247 69.9029789,10.7064788 70.2649842,9.41288935 C70.528204,8.47228111 70.3989488,7.40352813 69.5195389,6.69401057 C68.5789433,5.93512218 67.5670797,5.90135917 66.479725,6.43789284 C65.9207326,6.71371219 65.2880402,6.83749908 64.5499306,7.00019056 M14.1186549,0.343276497 C12.2290207,-0.392905739 10.8186452,0.307269209 10.5121067,2.24926294 C10.2849958,3.68805415 9.69134773,4.72563951 8.30797667,5.30173359 C7.08037386,5.81295815 7.01693005,6.9347312 7.13091167,8.06202757 C7.23335849,9.07524475 7.95480336,9.7002971 8.78968067,9.98707927 C9.91950504,10.3751779 10.3927905,11.114631 10.4967257,12.2174955 C10.6401187,13.7390306 11.7004018,14.6936187 13.1617515,14.7729403 C14.4877125,14.8449115 15.1172893,13.9771744 15.9082218,13.0488604 C16.5780418,12.6900247 17.2227446,12.6136517 18.0076678,12.8176499 C18.9917165,13.0733967 19.9903651,12.8299578 20.666834,11.9538398 C21.3729975,11.0392566 21.5070193,9.87862176 20.9094746,9.00255844 C20.0812398,7.78827923 20.1246616,6.74151603 20.8263761,5.59546351 C21.4647976,4.55278179 21.1847651,3.56387265 20.5432121,2.71197208 C19.9501665,1.92448514 19.067465,1.59521423 18.0662042,1.89398452 C16.6991717,2.30189976 15.6214415,1.88616509 14.7475665,0.791394381 C14.6207272,0.632494581 14.418377,0.534946359 14.1186549,0.343276497 M34.3580047,1.19122611 C33.4697943,2.574885 33.5568468,3.83334788 34.5909462,5.16817033 C35.7352411,6.64522937 36.6672965,8.25171174 38.3239546,9.29796041 C40.4159032,10.6191125 41.3558379,12.6370941 41.4712488,15.1479458 C41.5263091,16.3458386 41.7648755,17.6396285 42.3039667,18.68946 C43.5721694,21.1591883 43.5333969,23.477553 42.2107717,25.8754313 C41.8359577,26.554952 41.6101542,27.3438987 41.4489985,28.1110931 C41.2473365,29.0711263 41.1263754,30.0572506 41.0710231,31.0378848 C40.9579411,33.0413243 41.459882,33.9111354 43.012147,34.5839019 C45.8934374,34.7465688 46.5870867,34.0506009 46.9099818,31.1252293 C47.0484496,29.8707357 47.3468485,28.5350544 47.9509565,27.4508538 C49.6769945,24.3530793 50.0461923,21.2792754 48.3993074,18.0659482 C47.4675637,16.2479817 47.1583244,14.3061464 47.0388967,12.2794709 C46.884799,9.66436207 45.8031807,7.42000425 43.662818,5.8849871 C41.895607,4.6175853 40.2048399,3.33282283 39.1357212,1.37099204 C38.2460977,-0.261469853 35.6996471,-0.431563075 34.3580047,1.19122611 M92.8110467,33.1351402 C92.6004696,31.3489854 91.6304284,30.4288833 89.9083271,30.4610385 C88.3854276,30.4894733 86.8805237,30.3653898 85.5060998,29.6880396 C83.8158589,28.8550569 82.0563126,28.7292041 80.214117,28.7192939 C78.4687729,28.7101332 76.9841595,29.2430791 75.54772,30.1570098 C74.2097226,31.008313 72.7109757,31.4543848 71.136303,31.5824949 C68.1198921,31.8278965 65.7492944,33.2021699 64.2031231,35.8114415 C63.1961575,37.5107541 62.1895866,39.1944309 60.4734936,40.2150541 C58.9723549,41.10783 58.5676289,43.7838483 60.2380315,45.1536244 C61.1755773,45.6497303 62.1579781,46.0932361 63.1914139,45.5651021 C63.8317853,45.2378429 64.3834077,44.7220195 64.9474182,44.2569577 C66.0888291,43.3157901 67.1758748,42.3618704 67.9164391,40.9985801 C69.0182477,38.9702909 70.6582433,37.5222481 73.0521355,37.2221622 C74.6080857,37.0271208 76.115181,36.698046 77.4536363,35.826151 C79.2169189,34.6775186 81.1602002,34.349916 83.0615788,35.1470978 C85.3081112,36.0889927 87.6103135,36.2602035 89.9743367,36.3358925 C91.471962,36.3838425 93.0658894,34.8522711 92.8110467,33.1351402 Z" id="Shape" fill="#000000"></path>
                <path d="M56.6298753,60.9370584 C57.9175188,63.6145519 58.9204561,66.3623884 59.2885094,69.3579357 C59.5662462,71.6183287 59.3668156,73.6997433 58.1281244,75.6260737 C57.0302296,77.3334426 55.3584138,78.0443796 53.4452935,78.3138256 C52.9324895,78.386045 52.4171163,78.4397391 51.7629205,78.4442015 C48.2408926,78.1358459 45.085084,77.06813 42.1062899,75.5118273 C36.0951033,72.3712233 30.8715279,68.1941582 26.3975144,63.0641602 C26.0161258,62.6268602 25.570676,62.2464295 25.0557892,61.7424869 C23.7098838,63.6822856 22.449054,65.499473 21.1109992,67.3200548 C19.9196092,67.3596514 19.4210259,67.7742694 19.3466778,68.7568636 C19.3207856,69.0990714 19.3476135,69.4453379 19.2980377,69.827743 C14.7434135,76.0659485 10.2195649,82.2504943 5.76448536,88.485057 C5.16805555,89.3197253 4.79293349,90.3762303 4.54909574,91.3873887 C4.35094799,92.2090796 4.50331893,93.1168102 4.50024337,93.9863816 C2.48999062,93.6770851 1.2089805,92.4486276 0.368513812,90.65885 C0.307156687,90.5281912 0.197161125,90.42078 0.0548893124,90.3623463 C0,89.0939919 0,87.7658588 0,86.3490823 C0.125412375,86.1409276 0.315995249,86.0444791 0.366748312,85.8985336 C1.81299581,81.7398263 3.25772999,77.5804839 4.67665574,73.4122222 C6.6920458,67.4917707 8.67890323,61.5614362 10.6928531,55.6404881 C12.257372,51.0408382 13.8446747,46.4490713 15.4907557,41.9059817 C15.8944303,43.7091378 16.0818302,45.5053204 16.5931893,47.2021248 C17.8402592,51.3402112 20.0808736,54.9735813 22.5935341,58.4394094 C23.3531686,59.487203 24.1788628,60.4862441 25.0068142,61.5493764 C25.9303094,59.5595206 26.7694046,57.7515296 27.6469889,55.9506161 C27.6854784,55.9576938 27.7630321,55.9693261 27.7858173,56.028978 C31.9314624,61.1454038 36.5887842,65.6264833 41.9975654,69.2628671 C44.5657254,70.9894656 47.2214013,72.5886264 50.368355,73.0563381 C53.1280233,73.4664878 54.7383271,71.8774873 54.0182478,69.1371845 C53.4739782,67.0659591 52.5005894,65.1095169 51.7589665,63.0560838 C53.230711,61.8944479 54.7186833,60.9139262 56.6298753,60.9370584 M14.5488997,63.9897984 C15.8967178,63.9257822 16.3987142,62.7061804 17.2182056,61.946185 C17.8264518,61.3820999 17.740823,60.5535566 17.1956793,60.0069115 C16.6536056,59.4633435 15.8817718,59.4322158 15.2610041,59.9874624 C14.7249013,60.4669799 14.2206547,60.9860649 13.7319461,61.5154951 C12.8425815,62.4789518 13.1285608,63.5076255 14.5488997,63.9897984 Z" id="Shape" fill="#14B8A6"></path>
                <path d="M89.9893513,75.8853305 C90.8755474,75.686453 91.7532405,75.3868895 92.6497193,75.3098669 C94.4632014,75.1540612 95.4424209,77.3404106 94.9595203,78.6942447 C94.3598614,80.3754218 94.5728646,81.2554654 95.9498863,82.3466022 C96,83.1749781 96,84.0620358 96,85.0372636 C95.8392563,85.1940103 95.6350136,85.220964 95.5249386,85.3380334 C94.8922005,86.0109903 94.1494217,86.3581575 93.2147312,86.2632735 C92.1033039,86.1504471 91.2335586,86.5422909 90.5691604,87.5575887 C88.3209458,84.901051 87.4521446,81.9494992 88.573677,78.6223314 C88.8982429,77.6594519 89.509512,76.7949374 89.9893513,75.8853305 Z" id="Path" fill="#2DD4BF"></path>
                <path d="M21.1882239,67.3166604 C22.449054,65.499473 23.7098838,63.6822856 25.0557892,61.7424869 C25.570676,62.2464295 26.0161258,62.6268602 26.3975144,63.0641602 C30.8715279,68.1941582 36.0951033,72.3712233 42.1062899,75.5118273 C45.085084,77.06813 48.2408926,78.1358459 51.6828061,78.4300868 C46.9555979,80.1240219 42.167759,81.7721257 37.3816109,83.4252174 C31.5425407,85.4419751 25.7000458,87.4488092 19.8682867,89.4868921 C15.8283808,90.8987559 11.8202822,92.4056018 7.76097205,93.7568786 C6.80240905,94.0759661 5.69507849,93.9401637 4.57821337,94 C4.50331893,93.1168102 4.35094799,92.2090796 4.54909574,91.3873887 C4.79293349,90.3762303 5.16805555,89.3197253 5.76448536,88.485057 C10.2195649,82.2504943 14.7434135,76.0659485 19.3353626,69.8857495 C20.0181858,72.6530639 22.1160337,74.4864906 24.713751,74.5278766 C25.8162089,74.5454495 26.4591324,74.0554428 26.4967376,73.168997 C26.5351498,72.2634426 25.9695742,71.7562962 24.849126,71.6916046 C23.280191,71.6010042 22.2232005,70.5834779 22.1680515,68.9854775 C22.140989,68.2012993 21.8814785,67.654585 21.1882239,67.3166604 M30.9216958,80.6825535 C31.3467695,80.5411339 31.8436576,80.4951352 32.1807663,80.2368539 C32.7441044,79.8052634 33.2261669,79.2570137 33.7042666,78.7230805 C34.2952196,78.063107 34.2923442,77.2614367 33.7455427,76.7024492 C33.1571619,76.1009554 32.3820106,76.1154167 31.6780331,76.7721342 C31.1996557,77.2184052 30.7360899,77.6832421 30.2931463,78.1652649 C29.4238931,79.1112065 29.6134959,80.024358 30.9216958,80.6825535 Z" id="Shape" fill="#16C8B5"></path>
                <path d="M27.6084997,55.9435327 C26.7694046,57.7515296 25.9303094,59.5595206 25.0068142,61.5493764 C24.1788628,60.4862441 23.3531686,59.487203 22.5935341,58.4394094 C20.0808736,54.9735813 17.8402592,51.3402112 16.5931893,47.2021248 C16.0818302,45.5053204 15.8944303,43.7091378 15.555465,41.8736993 C15.4230438,39.640797 15.8438561,37.6463835 17.4073149,36.088531 C18.5380355,34.9618645 19.9509675,34.4120761 21.5609881,34.2161456 C24.9898968,33.7988605 28.0994827,34.837045 31.2237283,36.2016863 C29.6394826,37.284152 28.5672399,38.693874 28.1542769,40.58419 C26.7972881,40.1668444 25.533128,39.6815627 24.2247592,39.4388915 C22.1288668,39.0501478 20.7624495,40.2917909 20.773443,42.4289287 C20.7850258,44.6800504 21.6296083,46.7025002 22.7440226,48.5594341 C24.2598954,51.0853187 25.9774419,53.4880088 27.6084997,55.9435327 Z" id="Path" fill="#0D9488"></path>
                <path d="M92.7840557,33.2835654 C93.0658894,34.8522711 91.471962,36.3838425 89.9743367,36.3358925 C87.6103135,36.2602035 85.3081112,36.0889927 83.0615788,35.1470978 C81.1602002,34.349916 79.2169189,34.6775186 77.4536363,35.826151 C76.115181,36.698046 74.6080857,37.0271208 73.0521355,37.2221622 C70.6582433,37.5222481 69.0182477,38.9702909 67.9164391,40.9985801 C67.1758748,42.3618704 66.0888291,43.3157901 64.9474182,44.2569577 C64.3834077,44.7220195 63.8317853,45.2378429 63.1914139,45.5651021 C62.1579781,46.0932361 61.1755773,45.6497303 60.2552033,45.0472322 C60.4993973,43.8914472 60.9791566,43.0373183 61.9076329,42.4226911 C63.3453828,41.470936 64.3424091,40.1243498 65.1597863,38.6033833 C66.5577336,36.0021071 68.7587528,34.4583463 71.6527519,34.0492673 C73.5821629,33.7765395 75.4318485,33.4029525 77.1154519,32.3252869 C79.9750328,30.4948825 82.9349442,30.499166 86.0317956,31.8150634 C87.2606621,32.3372283 88.6615448,32.4519249 89.9877491,32.7347987 C90.9166659,32.9329316 91.8517343,33.101689 92.7840557,33.2835654 Z" id="Path" fill="#2DD4BF"></path>
                <path d="M34.4790117,1.12886343 C35.6996471,-0.431563075 38.2460977,-0.261469853 39.1357212,1.37099204 C40.2048399,3.33282283 41.895607,4.6175853 43.662818,5.8849871 C45.8031807,7.42000425 46.884799,9.66436207 47.0388967,12.2794709 C47.1583244,14.3061464 47.4675637,16.2479817 48.3993074,18.0659482 C50.0461923,21.2792754 49.6769945,24.3530793 47.9509565,27.4508538 C47.3468485,28.5350544 47.0484496,29.8707357 46.9099818,31.1252293 C46.5870867,34.0506009 45.8934374,34.7465688 42.9962941,34.4538982 C43.213975,33.6784083 43.6500378,33.0305953 43.6427851,32.3878713 C43.6216422,30.5146114 44.2554275,28.8811276 45.0721407,27.264619 C45.423214,26.5697452 45.7471563,25.8339816 45.9186145,25.0787143 C46.440076,22.7816979 46.1245595,20.5769864 44.9859867,18.5060309 C44.2601052,17.1857172 43.8633042,15.7651493 43.8849164,14.262392 C43.9341603,10.838474 42.5725623,8.11183066 39.7784444,6.24962875 C38.1380883,5.15637686 36.8853751,3.80920329 35.8338005,2.17605415 C35.5417242,1.72244284 34.9391386,1.47233553 34.4790117,1.12886343 Z" id="Path" fill="#2DD4BF"></path>
                <path d="M56.7093717,60.9258533 C54.7186833,60.9139262 53.230711,61.8944479 51.6894151,63.0750766 C50.2115307,63.5193849 48.8518182,63.9312955 47.4743043,64.2693586 C46.0070002,64.629457 45.0003205,64.1584143 44.1638776,62.782487 C44.9640772,62.4067093 45.6669847,61.8650233 46.4463245,61.7069891 C48.0682583,61.3780935 49.5434018,60.8127557 50.875414,59.820671 C53.5863991,57.8015116 56.5211678,57.4070295 59.7264749,58.4894088 C60.9141998,58.8904893 62.1974144,59.0656054 63.4519444,59.1856306 C64.6455117,59.2998251 65.8704587,59.0977435 67.0603467,59.229759 C69.3586922,59.4847726 71.1970197,60.6477132 72.6928197,62.4206452 C73.7696515,63.696972 75.0010129,64.7824052 76.5467378,65.4999406 C77.1649819,65.7869248 77.6558648,66.3531515 78.2047176,66.79227 C77.9136486,67.6686882 77.1911773,67.9643432 76.3925629,68.0917809 C75.2874299,68.2681325 74.3301259,67.9025959 73.3671055,67.3269651 C72.083313,66.5596033 70.6314469,66.0224662 69.7372171,64.7487084 C68.8078309,63.4248588 67.5537529,62.6030066 66.0563164,62.2289317 C65.1473637,62.001865 64.1573354,62.1258444 63.210085,62.0289169 C62.003008,61.9054107 60.7967264,61.7515908 59.6007214,61.5474887 C58.6551248,61.3861178 57.7255555,61.1291586 56.7093717,60.9258533 Z" id="Path" fill="#2DD4BF"></path>
                <path d="M78.2675743,66.7587754 C77.6558648,66.3531515 77.1649819,65.7869248 76.5467378,65.4999406 C75.0010129,64.7824052 73.7696515,63.696972 72.6928197,62.4206452 C71.1970197,60.6477132 69.3586922,59.4847726 67.0603467,59.229759 C65.8704587,59.0977435 64.6455117,59.2998251 63.4519444,59.1856306 C62.1974144,59.0656054 60.9141998,58.8904893 59.7264749,58.4894088 C56.5211678,57.4070295 53.5863991,57.8015116 50.875414,59.820671 C49.5434018,60.8127557 48.0682583,61.3780935 46.4463245,61.7069891 C45.6669847,61.8650233 44.9640772,62.4067093 44.1356279,62.7095864 C43.404565,60.532901 44.374037,58.9942925 46.5315228,58.6251882 C47.162078,58.5173037 47.7701455,58.2756311 48.4577523,58.0895752 C50.1126824,57.1348587 51.6983757,56.1858459 53.2840748,55.2368388 C55.3072186,54.7257145 57.3294411,54.6471565 59.3538552,55.2356149 C60.4556637,55.5558858 61.5449583,56.0013949 62.6698038,56.1359677 C63.7254582,56.2622622 64.8202915,56.0063019 65.8982335,56.0016026 C68.6007672,55.9898085 70.8023815,57.0823134 72.590521,59.1220417 C73.7539444,60.4491703 75.0227565,61.6564874 76.7018222,62.3463994 C78.3624,63.0287143 79.365984,64.6927687 78.2675743,66.7587754 Z" id="Path" fill="#0EA497"></path>
                <path d="M34.4185068,1.16004487 C34.9391386,1.47233553 35.5417242,1.72244284 35.8338005,2.17605415 C36.8853751,3.80920329 38.1380883,5.15637686 39.7784444,6.24962875 C42.5725623,8.11183066 43.9341603,10.838474 43.8849164,14.262392 C43.8633042,15.7651493 44.2601052,17.1857172 44.9859867,18.5060309 C46.1245595,20.5769864 46.440076,22.7816979 45.9186145,25.0787143 C45.7471563,25.8339816 45.423214,26.5697452 45.0721407,27.264619 C44.2554275,28.8811276 43.6216422,30.5146114 43.6427851,32.3878713 C43.6500378,33.0305953 43.213975,33.6784083 42.9517765,34.3865944 C41.459882,33.9111354 40.9579411,33.0413243 41.0710231,31.0378848 C41.1263754,30.0572506 41.2473365,29.0711263 41.4489985,28.1110931 C41.6101542,27.3438987 41.8359577,26.554952 42.2107717,25.8754313 C43.5333969,23.477553 43.5721694,21.1591883 42.3039667,18.68946 C41.7648755,17.6396285 41.5263091,16.3458386 41.4712488,15.1479458 C41.3558379,12.6370941 40.4159032,10.6191125 38.3239546,9.29796041 C36.6672965,8.25171174 35.7352411,6.64522937 34.5909462,5.16817033 C33.5568468,3.83334788 33.4697943,2.574885 34.4185068,1.16004487 Z" id="Path" fill="#0EA497"></path>
                <path d="M92.797554,33.2093543 C91.8517343,33.101689 90.9166659,32.9329316 89.9877491,32.7347987 C88.6615448,32.4519249 87.2606621,32.3372283 86.0317956,31.8150634 C82.9349442,30.499166 79.9750328,30.4948825 77.1154519,32.3252869 C75.4318485,33.4029525 73.5821629,33.7765395 71.6527519,34.0492673 C68.7587528,34.4583463 66.5577336,36.0021071 65.1597863,38.6033833 C64.3424091,40.1243498 63.3453828,41.470936 61.9076329,42.4226911 C60.9791566,43.0373183 60.4993973,43.8914472 60.2208023,44.9871129 C58.5676289,43.7838483 58.9723549,41.10783 60.4734936,40.2150541 C62.1895866,39.1944309 63.1961575,37.5107541 64.2031231,35.8114415 C65.7492944,33.2021699 68.1198921,31.8278965 71.136303,31.5824949 C72.7109757,31.4543848 74.2097226,31.008313 75.54772,30.1570098 C76.9841595,29.2430791 78.4687729,28.7101332 80.214117,28.7192939 C82.0563126,28.7292041 83.8158589,28.8550569 85.5060998,29.6880396 C86.8805237,30.3653898 88.3854276,30.4894733 89.9083271,30.4610385 C91.6304284,30.4288833 92.6004696,31.3489854 92.797554,33.2093543 Z" id="Path" fill="#0EA497"></path>
                <path d="M14.2509701,0.40900806 C14.418377,0.534946359 14.6207272,0.632494581 14.7475665,0.791394381 C15.6214415,1.88616509 16.6991717,2.30189976 18.0662042,1.89398452 C19.067465,1.59521423 19.9501665,1.92448514 20.5432121,2.71197208 C21.1847651,3.56387265 21.4647976,4.55278179 20.8263761,5.59546351 C20.1246616,6.74151603 20.0812398,7.78827923 20.9094746,9.00255844 C21.5070193,9.87862176 21.3729975,11.0392566 20.666834,11.9538398 C19.9903651,12.8299578 18.9917165,13.0733967 18.0076678,12.8176499 C17.2227446,12.6136517 16.5780418,12.6900247 15.8248473,12.9912089 C15.5832468,12.6641172 15.4499289,12.3754922 15.2628438,12.1282835 C13.7895213,10.1814902 12.9524805,7.97509865 13.1684934,5.54392992 C13.3222419,3.81356152 13.8758255,2.11935383 14.2509701,0.40900806 Z" id="Path" fill="#2DD4BF"></path>
                <path d="M64.688656,7.02998747 C65.2880402,6.83749908 65.9207326,6.71371219 66.479725,6.43789284 C67.5670797,5.90135917 68.5789433,5.93512218 69.5195389,6.69401057 C70.3989488,7.40352813 70.528204,8.47228111 70.2649842,9.41288935 C69.9029789,10.7064788 70.3429356,11.5939247 71.232336,12.3558021 C72.1337014,13.1279337 72.3479747,14.4160155 71.796873,15.5877224 C71.4146577,16.4003497 70.7678775,16.7183286 69.931057,16.8457403 C68.8224964,17.0145251 67.6674499,17.1595686 67.1658269,18.4701174 C66.1497518,17.1627176 64.9945165,15.9909215 64.3476106,14.5816194 C63.2005463,12.0826844 63.6227476,9.50584382 64.688656,7.02998747 Z" id="Path" fill="#2DD4BF"></path>
                <path d="M89.9214936,75.8698245 C89.509512,76.7949374 88.8982429,77.6594519 88.573677,78.6223314 C87.4521446,81.9494992 88.3209458,84.901051 90.5109788,87.5904829 C90.1961574,88.6242077 89.3682347,89.0584827 88.4228726,89.0649962 C87.4626388,89.0714429 86.5616627,88.7159628 86.1153602,87.713175 C86.003626,87.4621332 85.9163475,87.1978367 85.8407421,86.9329801 C85.5130978,85.7852107 84.819952,85.1193084 83.60491,84.9069569 C82.486765,84.711543 81.7412397,83.9309554 81.5954704,82.7977859 C81.4548398,81.7045709 81.7521343,80.7234547 82.8314038,80.1188031 C83.8286762,79.5600869 84.2346611,78.6473166 84.1902925,77.4992413 C84.1605206,76.7287622 84.0961761,75.9719823 84.7670231,75.3337785 C85.850481,74.303044 87.2037506,74.1891381 88.4192218,75.0858944 C88.8517343,75.4049934 89.3729267,75.6017294 89.9214936,75.8698245 Z" id="Path" fill="#0EA497"></path>
                <path d="M64.6192932,7.01508901 C63.6227476,9.50584382 63.2005463,12.0826844 64.3476106,14.5816194 C64.9945165,15.9909215 66.1497518,17.1627176 67.1049901,18.4985894 C66.7154331,19.7675917 66.0741634,20.1574367 64.8385564,20.261341 C63.449524,20.3781476 62.5695248,19.478437 62.2688198,18.5200923 C61.9243527,17.4222674 61.1864834,16.9292675 60.1257591,16.8434427 C58.9337082,16.7469884 58.0577832,16.1827243 57.6118984,15.075471 C57.1895142,14.0265907 57.6911718,12.893131 58.6775838,11.988206 C59.3894521,11.3351412 59.8053246,10.5152625 59.5309868,9.43739109 C59.259493,8.37069776 59.3363858,7.30658827 60.32749,6.59016118 C61.2360878,5.93337143 62.2166806,5.78539606 63.2449609,6.37826136 C63.6613771,6.6183549 64.1138592,6.79478807 64.6192932,7.01508901 Z" id="Path" fill="#0EA497"></path>
                <path d="M14.1848117,0.376142278 C13.8758255,2.11935383 13.3222419,3.81356152 13.1684934,5.54392992 C12.9524805,7.97509865 13.7895213,10.1814902 15.2628438,12.1282835 C15.4499289,12.3754922 15.5832468,12.6641172 15.7515937,12.9999795 C15.1172893,13.9771744 14.4877125,14.8449115 13.1617515,14.7729403 C11.7004018,14.6936187 10.6401187,13.7390306 10.4967257,12.2174955 C10.3927905,11.114631 9.91950504,10.3751779 8.78968067,9.98707927 C7.95480336,9.7002971 7.23335849,9.07524475 7.13091167,8.06202757 C7.01693005,6.9347312 7.08037386,5.81295815 8.30797667,5.30173359 C9.69134773,4.72563951 10.2849958,3.68805415 10.5121067,2.24926294 C10.8186452,0.307269209 12.2290207,-0.392905739 14.1848117,0.376142278 Z" id="Path" fill="#0EA497"></path>
                <path d="M53.2554018,55.1762229 C51.6983757,56.1858459 50.1126824,57.1348587 48.4245187,58.0334797 C47.5148221,56.9852012 46.76962,55.9271434 45.8877727,55.001609 C43.8841269,52.8987074 41.8133069,50.8609593 39.7600709,48.7545711 C39.7503577,48.712417 39.7343789,48.6273644 39.8231965,48.624957 C42.6174633,48.5712571 45.3169499,48.5909372 47.9686548,49.25296 C48.091015,49.2835047 48.2430897,49.1929389 48.381323,49.1587746 C49.8912393,51.0310127 51.4006977,52.9036318 52.9121305,54.7746228 C53.0091535,54.8947287 53.1215058,55.002244 53.2554018,55.1762229 Z" id="Path" fill="#0D9488"></path>
                <path d="M34.5216924,35.7871346 C36.3621742,35.5186094 38.9320107,37.8328752 39.365098,39.7742962 C39.4583904,40.1925021 39.498991,40.6226667 39.547537,41.2026764 C39.4313995,43.4085295 38.514473,45.0144043 36.8501101,46.2749739 C36.1594077,46.5193336 35.5348522,46.7382837 34.8983662,46.888282 C34.7603075,46.6044786 34.6442244,46.3828354 34.5065291,46.1758208 C32.741873,43.5227269 32.5215427,40.701395 33.6282922,37.7500914 C33.8802311,37.078266 34.2215281,36.44055 34.5216924,35.7871346 Z" id="Path" fill="#2DD4BF"></path>
                <path d="M87.7540856,0.0307478618 C89.2374173,0.236945414 90.5579854,0.745183396 91.6121522,1.89661452 C94.0739364,4.58554466 93.5100289,8.50648507 90.7911816,10.5782084 C90.4825629,10.8133688 90.1089649,10.9617261 89.6860828,11.0769842 C89.3244724,10.6722177 89.0575791,10.3259275 88.757595,10.0118084 C86.8497276,8.01404428 86.0466956,5.66204065 86.6686993,2.93419874 C86.896471,1.93527507 87.3846818,0.99679951 87.7540856,0.0307478618 Z" id="Path" fill="#2DD4BF"></path>
                <path d="M87.6747666,0.0153738363 C87.3846818,0.99679951 86.896471,1.93527507 86.6686993,2.93419874 C86.0466956,5.66204065 86.8497276,8.01404428 88.757595,10.0118084 C89.0575791,10.3259275 89.3244724,10.6722177 89.6188029,11.0657588 C85.9115353,12.7102344 81.8493233,10.1475762 81.7263623,6.163804 C81.6100159,2.39440099 84.2464485,0.159780186 87.6747666,0.0153738363 Z" id="Path" fill="#0EA497"></path>
                <path d="M34.4509679,35.7530368 C34.2215281,36.44055 33.8802311,37.078266 33.6282922,37.7500914 C32.5215427,40.701395 32.741873,43.5227269 34.5065291,46.1758208 C34.6442244,46.3828354 34.7603075,46.6044786 34.8250008,46.9172765 C30.8834553,47.531003 28.0185614,44.7301853 28.2272673,40.625123 C28.5672399,38.693874 29.6394826,37.284152 31.2946674,36.2142827 C32.3282606,35.9383365 33.2774821,35.2797801 34.4509679,35.7530368 Z" id="Path" fill="#0EA497"></path>
                <path d="M36.9162599,46.2495672 C38.514473,45.0144043 39.4313995,43.4085295 39.5473195,41.2805994 C40.6549389,42.0318488 41.8158417,42.7834043 42.8229734,43.7058443 C44.7079269,45.4322782 46.503748,47.2577699 48.358984,49.1004161 C48.2430897,49.1929389 48.091015,49.2835047 47.9686548,49.25296 C45.3169499,48.5909372 42.6174633,48.5712571 39.7702447,48.5924554 C38.7244034,47.7914316 37.8203317,47.0205024 36.9162599,46.2495672 Z" id="Path" fill="#0D9488"></path>
                <path d="M88.6924611,47.1366885 C90.5342389,46.8663159 91.7996291,47.8244703 92.6145343,49.2962397 C93.4813843,50.8618079 93.5266856,52.5548598 92.2436141,53.9729412 C91.6623688,54.6153534 90.8479386,55.0430009 90.0598412,55.5125541 C89.8561249,55.2788773 89.7405797,55.0937103 89.6062489,54.9236455 C88.2556172,53.2138 87.571146,51.3319444 88.1397743,49.1303199 C88.3122083,48.4626798 88.5075874,47.801061 88.6924611,47.1366885 Z" id="Path" fill="#2DD4BF"></path>
                <path d="M88.613079,47.1214422 C88.5075874,47.801061 88.3122083,48.4626798 88.1397743,49.1303199 C87.571146,51.3319444 88.2556172,53.2138 89.6062489,54.9236455 C89.7405797,55.0937103 89.8561249,55.2788773 89.9919433,55.5201051 C88.8267632,55.7910349 87.6998348,55.7635382 86.6058311,55.1472082 C85.0933457,54.2950997 84.1263829,52.1279571 84.5882893,50.2754682 C85.05859,48.3893173 86.9238683,46.927304 88.613079,47.1214422 Z" id="Path" fill="#0EA497"></path>
                <path d="M39.769787,48.796725 C41.8133069,50.8609593 43.8841269,52.8987074 45.8877727,55.001609 C46.76962,55.9271434 47.5148221,56.9852012 48.3552933,58.0391834 C47.7701455,58.2756311 47.162078,58.5173037 46.5315228,58.6251882 C44.374037,58.9942925 43.404565,60.532901 44.0729485,62.7174145 C45.0003205,64.1584143 46.0070002,64.629457 47.4743043,64.2693586 C48.8518182,63.9312955 50.2115307,63.5193849 51.6486284,63.1209774 C52.5005894,65.1095169 53.4739782,67.0659591 54.0182478,69.1371845 C54.7383271,71.8774873 53.1280233,73.4664878 50.368355,73.0563381 C47.2214013,72.5886264 44.5657254,70.9894656 41.9975654,69.2628671 C36.5887842,65.6264833 31.9314624,61.1454038 27.8115208,55.9725763 C30.6804114,51.5742056 34.684004,49.2527811 39.769787,48.796725 Z" id="Path" fill="#F3F5FB"></path>
                <path d="M39.7600709,48.7545711 C34.684004,49.2527811 30.6804114,51.5742056 27.7887356,55.9129303 C27.7630321,55.9693261 27.6854784,55.9576938 27.6469919,55.9506161 C25.9774419,53.4880088 24.2598954,51.0853187 22.7440226,48.5594341 C21.6296083,46.7025002 20.7850258,44.6800504 20.7733771,42.4289287 C20.7624495,40.2917909 22.1288668,39.0501478 24.2247592,39.4388915 C25.533128,39.6815627 26.7972881,40.1668444 28.1542769,40.58419 C28.0185614,44.7301853 30.8834553,47.531003 34.8369342,46.9862284 C35.5348522,46.7382837 36.1594077,46.5193336 36.8501101,46.2749739 C37.8203317,47.0205024 38.7244034,47.7914316 39.681427,48.5948684 C39.7343789,48.6273644 39.7503577,48.712417 39.7600709,48.7545711 Z" id="Path" fill="#E8ECF8"></path>
                <path d="M21.1109992,67.3200548 C21.8814785,67.654585 22.140989,68.2012993 22.1680515,68.9854775 C22.2232005,70.5834779 23.280191,71.6010042 24.849126,71.6916046 C25.9695742,71.7562962 26.5351498,72.2634426 26.4967376,73.168997 C26.4591324,74.0554428 25.8162089,74.5454495 24.713751,74.5278766 C22.1160337,74.4864906 20.0181858,72.6530639 19.3876878,69.8477578 C19.3476135,69.4453379 19.3207856,69.0990714 19.3466778,68.7568636 C19.4210259,67.7742694 19.9196092,67.3596514 21.1109992,67.3200548 Z" id="Path" fill="#4B5563"></path>
                <path d="M14.4727623,63.9823108 C13.1285608,63.5076255 12.8425815,62.4789518 13.7319461,61.5154951 C14.2206547,60.9860649 14.7249013,60.4669799 15.2610041,59.9874624 C15.8817718,59.4322158 16.6536056,59.4633435 17.1956793,60.0069115 C17.740823,60.5535566 17.8264518,61.3820999 17.2182056,61.946185 C16.3987142,62.7061804 15.8967178,63.9257822 14.4727623,63.9823108 Z" id="Path" fill="#4B5563"></path>
                <path d="M30.8544217,80.6616151 C29.6134959,80.024358 29.4238931,79.1112065 30.2931463,78.1652649 C30.7360899,77.6832421 31.1996557,77.2184052 31.6780331,76.7721342 C32.3820106,76.1154167 33.1571619,76.1009554 33.7455427,76.7024492 C34.2923442,77.2614367 34.2952196,78.063107 33.7042666,78.7230805 C33.2261669,79.2570137 32.7441044,79.8052634 32.1807663,80.2368539 C31.8436576,80.4951352 31.3467695,80.5411339 30.8544217,80.6616151 Z" id="Path" fill="#4B5563"></path>
            </g>
        </g>
    </g>
</svg>