<?xml version="1.0" encoding="UTF-8"?>
<svg width="48px" height="48px" viewBox="0 0 48 48" version="1.1" xmlns="http://www.w3.org/2000/svg" xmlns:xlink="http://www.w3.org/1999/xlink">
    <title>customer-service</title>
    <g id="Welcome-Email" stroke="none" stroke-width="1" fill="none" fill-rule="evenodd">
        <g id="Welcome-Email-Copy" transform="translate(-398.000000, -56.000000)" fill="#0D9488" fill-rule="nonzero">
            <g id="customer-service" transform="translate(398.000000, 56.000000)">
                <g id="Group" transform="translate(24.000000, 24.000000) scale(-1, 1) rotate(-180.000000) translate(-24.000000, -24.000000) ">
                    <path d="M4.83735083,47.8564021 C2.68961842,47.4639011 0.793422249,45.7311528 0.203279561,43.5963303 C0.00979015558,42.9070602 5.75912692e-05,42.6581572 5.75912692e-05,35.6505784 C5.75912692e-05,27.6282409 -0.0192332553,27.9154368 0.648305194,26.5560431 C1.13202871,25.5604308 2.2736162,24.4307938 3.28943558,23.9329876 C4.08274215,23.5500598 5.08888705,23.3011568 5.86284468,23.3011568 L6.36591713,23.3011568 L6.40461501,21.1759075 C6.44331289,19.2804148 6.46266184,18.993219 6.64647677,18.600718 C7.24629393,17.2700439 8.65876659,16.6190666 10.0228669,17.030714 C10.5743117,17.2030315 10.7194288,17.327483 13.5927464,20.1324292 L16.5918322,23.0618269 L16.6402046,17.030714 L16.6885769,10.9996011 L16.9401132,10.3677702 C17.3174175,9.39130435 17.6753729,8.86477862 18.4203071,8.11806941 C18.933054,7.61069007 19.3103584,7.34264061 19.9295245,7.03629836 C21.2839503,6.3853211 21.5064631,6.35660152 26.6532813,6.35660152 L31.2002824,6.35660152 L34.1993681,3.38891105 C37.5467349,0.0957319505 37.6628285,0 38.7947415,0 C39.8008864,0 40.6715888,0.488232948 41.1649867,1.32110092 C41.4939187,1.87634623 41.6003379,2.69964101 41.6003379,4.66214599 L41.6003379,6.35660152 L42.0647125,6.35660152 C42.8289956,6.35660152 43.8351405,6.61507778 44.6961684,7.03629836 C46.2053858,7.76386119 47.424369,9.26685281 47.8403712,10.9038692 C48.0532096,11.7558835 48.0532096,25.6657359 47.8403712,26.5081771 C47.3372988,28.4611089 45.8087325,30.0981252 43.8738384,30.7491025 L43.0998808,31.0075788 L37.2274773,31.0362984 L31.3453994,31.0650179 L31.3453994,36.9333865 C31.3453994,42.4858396 31.3357249,42.8400479 31.15191,43.5484643 C30.5907907,45.7120064 28.6849201,47.4639011 26.4597919,47.8564021 C25.3472278,48.047866 5.93056597,48.047866 4.83735083,47.8564021 Z M26.0050918,45.6067012 C27.1563538,45.3960909 28.1431497,44.6589549 28.6558967,43.6154767 L28.9751542,42.9740726 L28.9751542,35.6505784 L28.9751542,28.3270842 L28.6945945,27.7335461 C28.3559881,27.0059832 27.6013794,26.2688472 26.8274218,25.9050658 L26.2663025,25.6465895 L21.071112,25.5987236 L15.866247,25.5508576 L14.7827063,24.4978061 C14.1828891,23.9234144 12.7026952,22.477862 11.5030609,21.3099322 C9.94547114,19.778221 9.25858375,19.1751097 9.13281563,19.2038293 C8.75551129,19.2708416 8.70713894,19.5963303 8.70713894,22.2768249 C8.70713894,25.6657359 8.80388364,25.522138 6.53038313,25.5987236 C5.2049807,25.6465895 5.03084023,25.6753091 4.49874437,25.914639 C3.76348463,26.2497008 3.07659724,26.9198245 2.67994395,27.6569605 L2.3703609,28.2313522 L2.3703609,35.6027124 L2.3703609,42.9740726 L2.68961842,43.6154767 C3.18301641,44.6206621 4.18916132,45.3960909 5.26302752,45.6067012 C5.83382127,45.7120064 25.4052747,45.7215796 26.0050918,45.6067012 Z M43.3610915,28.4898285 C44.1447236,28.173913 44.9090067,27.4559234 45.2959856,26.6709214 L45.6152431,26.0295174 L45.6152431,18.7060231 L45.6152431,11.3825289 L45.2959856,10.7411249 C44.8993323,9.94654966 44.1350491,9.22856003 43.3610915,8.93179099 C42.9160659,8.75947347 42.5581105,8.7116075 41.5035932,8.68288791 C39.2204182,8.61587555 39.3365119,8.79776625 39.278465,5.28440367 C39.2300927,2.68049462 39.2204182,2.49860391 39.0462778,2.37415237 C38.9398586,2.29756681 38.8140905,2.24012764 38.7560436,2.24012764 C38.6979968,2.24012764 37.2661752,3.60909454 35.553794,5.29397686 C33.8510872,6.969286 32.3515443,8.41483845 32.2161017,8.50099721 C32.0032634,8.63502194 31.461493,8.65416833 27.1370048,8.65416833 C21.8837675,8.65416833 21.6322312,8.67331472 20.7518544,9.19026725 C20.1810607,9.51575588 19.5715691,10.1858795 19.2716605,10.8368568 L19.0104498,11.3825289 L18.9814264,17.3466294 L18.9620774,23.3011568 L22.4642357,23.3011568 C26.4114196,23.3011568 26.8080728,23.3490227 28.0367306,23.9329876 C28.6075243,24.2010371 28.9654797,24.4690866 29.5652969,25.0626247 C30.4843716,25.9720782 30.9584206,26.8240925 31.2099568,28.0015955 L31.3840973,28.7674511 L37.0920348,28.7387316 L42.8096467,28.710012 L43.3610915,28.4898285 Z" id="Shape"></path>
                    <path d="M14.6182403,41.863582 C13.0219527,41.5955325 11.7158992,40.3318708 11.9480865,39.2788193 C12.0351567,38.8767451 12.5092058,38.5225369 12.9542314,38.5225369 C13.3605591,38.5225369 13.4960017,38.6086957 13.892655,39.1352214 C14.2409359,39.6138811 14.7923807,39.8627842 15.4792681,39.8627842 C17.1819749,39.8627842 17.6753729,38.5033905 16.3886683,37.3546071 C16.1371321,37.1248504 15.701781,36.7323494 15.4018724,36.4643 C14.7730318,35.8899083 14.4537743,35.3155166 14.3183317,34.4730754 C14.221587,33.8412445 14.2989828,33.0466693 14.4924722,32.8552054 C14.6472637,32.7020343 15.2664298,32.6063024 15.6340597,32.6828879 C16.17583,32.8073394 16.3499705,33.0179497 16.3499705,33.5827682 C16.3499705,34.5400878 16.4757386,34.750698 17.656024,35.8899083 C18.5654242,36.761069 18.8072859,37.0578381 19.0781711,37.6130834 C20.0262692,39.6330275 18.8459838,41.4615078 16.3306215,41.8731552 C15.6340597,41.9784603 15.3438256,41.9784603 14.6182403,41.863582 Z" id="Path"></path>
                    <path d="M14.6375892,31.5341045 C14.2506104,31.3043478 14.1248423,31.0745911 14.1248423,30.576785 C14.1248423,29.8109294 14.7440084,29.2461109 15.4502447,29.3609892 C15.9242938,29.4375748 16.1951789,29.6386119 16.3886683,30.0502593 C16.6208556,30.528919 16.5241109,30.9980056 16.1081087,31.409653 C15.846898,31.6681292 15.7114554,31.7255684 15.372849,31.7255684 C15.1213127,31.7255684 14.8214042,31.6489828 14.6375892,31.5341045 Z" id="Path"></path>
                    <path d="M24.650666,20.3334663 C23.9541041,20.122856 23.4123338,19.4144396 23.4123338,18.7060231 C23.4123338,17.6338253 24.4958744,16.8009573 25.5310428,17.07858 C26.3050004,17.2796171 26.7983984,17.9018748 26.7983984,18.6581572 C26.7983984,19.4814519 26.3243493,20.122856 25.5600662,20.3334663 C25.1537384,20.4387714 25.0182958,20.4387714 24.650666,20.3334663 Z" id="Path"></path>
                    <path d="M31.790425,20.2951735 C30.5714418,19.8452333 30.2231609,18.4188273 31.1228866,17.5285201 C32.6224295,16.0351017 34.9733258,18.1507778 33.6092255,19.7590746 C33.1351764,20.3143199 32.4192656,20.515357 31.790425,20.2951735 Z" id="Path"></path>
                    <path d="M38.9592075,20.2951735 C38.2142733,20.0271241 37.8272945,19.4718787 37.8272945,18.7060231 C37.8272945,17.9210211 38.2723201,17.327483 39.0366033,17.07858 C40.0427482,16.7530913 41.2036846,17.6242521 41.2133591,18.6964499 C41.2230336,19.8165138 39.9943758,20.6781013 38.9592075,20.2951735 Z" id="Path"></path>
                </g>
            </g>
        </g>
    </g>
</svg>